<svg viewBox="0 0 100 73.5" width="100%" height="100%">
	<rect x="3" y="30.5" width="94" height="64"
			rx="10" ry="10"
			stroke="white" fill="transparent" stroke-width="4.5"
			stroke-dasharray="0 53 3 316"
			transform="rotate(-180, 50, 50)">
		<animate attributeName="stroke-dasharray" to="0 53 316 316" dur="2.5s" fill="freeze" />
	</rect>
	<circle cx="32%" cy="94.5%" r="3.5" fill="white" />
	<g transform="translate(39, 58) scale(0.9)">
		<g id="svgGroup" stroke-linecap="round" font-size="9pt" 
			stroke="white" stroke-width="0" fill="white">
		<path d="M 9.51 8.91 L 0.99 8.91 L 0.99 6.93 L 8.85 6.93 A 2.24 2.24 0 0 0 9.302 6.888 Q 9.565 6.834 9.757 6.709 A 1.023 1.023 0 0 0 10.14 6.255 A 3.516 3.516 0 0 0 10.43 5.069 A 4.181 4.181 0 0 0 10.44 4.77 Q 10.41 3.36 9.6 2.76 A 2.365 2.365 0 0 0 8.964 2.437 Q 8.328 2.217 7.359 2.172 A 11.2 11.2 0 0 0 6.84 2.16 A 8.878 8.878 0 0 0 5.912 2.206 Q 5.44 2.255 5.047 2.36 A 3.614 3.614 0 0 0 4.335 2.625 A 2.424 2.424 0 0 0 3.286 3.673 A 3.475 3.475 0 0 0 3.045 4.245 Q 2.704 5.297 2.673 7.108 A 21.527 21.527 0 0 0 2.67 7.47 Q 2.67 9.529 3.03 10.729 A 4.708 4.708 0 0 0 3.135 11.04 A 3.52 3.52 0 0 0 3.562 11.853 A 2.555 2.555 0 0 0 4.62 12.72 A 4.585 4.585 0 0 0 5.478 12.994 Q 6.27 13.17 7.32 13.17 Q 8.49 13.17 9.885 13.065 Q 11.235 12.964 12.318 12.82 A 30.658 30.658 0 0 0 12.39 12.81 L 12.66 14.52 A 6.822 6.822 0 0 1 12.047 14.725 Q 11.744 14.811 11.397 14.886 A 13.121 13.121 0 0 1 10.965 14.97 Q 9.96 15.15 8.895 15.24 A 27.614 27.614 0 0 1 7.946 15.305 Q 7.5 15.327 7.103 15.33 A 16.105 16.105 0 0 1 6.99 15.33 Q 5.202 15.33 3.913 14.945 A 6.027 6.027 0 0 1 2.94 14.565 A 4.571 4.571 0 0 1 0.802 12.326 A 5.853 5.853 0 0 1 0.705 12.105 A 7.955 7.955 0 0 1 0.275 10.68 Q 0.121 9.941 0.053 9.067 A 18.738 18.738 0 0 1 0 7.62 A 19.212 19.212 0 0 1 0.069 5.939 Q 0.22 4.22 0.705 3.075 A 4.942 4.942 0 0 1 1.521 1.744 A 4.177 4.177 0 0 1 2.895 0.705 Q 4.38 0 6.72 0 A 14.408 14.408 0 0 1 8.389 0.09 Q 10.161 0.297 11.208 0.984 A 3.706 3.706 0 0 1 11.505 1.2 A 3.855 3.855 0 0 1 12.843 3.395 A 6.05 6.05 0 0 1 12.99 4.77 A 8.677 8.677 0 0 1 12.991 4.904 Q 12.991 6.758 12.18 7.815 A 2.645 2.645 0 0 1 10.792 8.742 Q 10.337 8.877 9.784 8.904 A 5.75 5.75 0 0 1 9.51 8.91 Z M 41.52 8.91 L 33 8.91 L 33 6.93 L 40.86 6.93 A 2.24 2.24 0 0 0 41.312 6.888 Q 41.575 6.834 41.767 6.709 A 1.023 1.023 0 0 0 42.15 6.255 A 3.516 3.516 0 0 0 42.44 5.069 A 4.181 4.181 0 0 0 42.45 4.77 Q 42.42 3.36 41.61 2.76 A 2.365 2.365 0 0 0 40.974 2.437 Q 40.338 2.217 39.369 2.172 A 11.2 11.2 0 0 0 38.85 2.16 A 8.878 8.878 0 0 0 37.922 2.206 Q 37.45 2.255 37.057 2.36 A 3.614 3.614 0 0 0 36.345 2.625 A 2.424 2.424 0 0 0 35.296 3.673 A 3.475 3.475 0 0 0 35.055 4.245 Q 34.714 5.297 34.683 7.108 A 21.527 21.527 0 0 0 34.68 7.47 Q 34.68 9.529 35.04 10.729 A 4.708 4.708 0 0 0 35.145 11.04 A 3.52 3.52 0 0 0 35.572 11.853 A 2.555 2.555 0 0 0 36.63 12.72 A 4.585 4.585 0 0 0 37.488 12.994 Q 38.28 13.17 39.33 13.17 Q 40.5 13.17 41.895 13.065 Q 43.245 12.964 44.328 12.82 A 30.658 30.658 0 0 0 44.4 12.81 L 44.67 14.52 A 6.822 6.822 0 0 1 44.057 14.725 Q 43.754 14.811 43.407 14.886 A 13.121 13.121 0 0 1 42.975 14.97 Q 41.97 15.15 40.905 15.24 A 27.614 27.614 0 0 1 39.956 15.305 Q 39.51 15.327 39.113 15.33 A 16.105 16.105 0 0 1 39 15.33 Q 37.212 15.33 35.923 14.945 A 6.027 6.027 0 0 1 34.95 14.565 A 4.571 4.571 0 0 1 32.812 12.326 A 5.853 5.853 0 0 1 32.715 12.105 A 7.955 7.955 0 0 1 32.285 10.68 Q 32.131 9.941 32.063 9.067 A 18.738 18.738 0 0 1 32.01 7.62 A 19.212 19.212 0 0 1 32.079 5.939 Q 32.23 4.22 32.715 3.075 A 4.942 4.942 0 0 1 33.531 1.744 A 4.177 4.177 0 0 1 34.905 0.705 Q 36.39 0 38.73 0 A 14.408 14.408 0 0 1 40.399 0.09 Q 42.171 0.297 43.218 0.984 A 3.706 3.706 0 0 1 43.515 1.2 A 3.855 3.855 0 0 1 44.853 3.395 A 6.05 6.05 0 0 1 45 4.77 A 8.677 8.677 0 0 1 45.001 4.904 Q 45.001 6.758 44.19 7.815 A 2.645 2.645 0 0 1 42.802 8.742 Q 42.347 8.877 41.794 8.904 A 5.75 5.75 0 0 1 41.52 8.91 Z M 27.12 0.36 L 29.82 0.36 L 24.48 14.34 A 1.188 1.188 0 0 1 24.342 14.595 A 0.939 0.939 0 0 1 24.135 14.805 A 0.84 0.84 0 0 1 23.778 14.954 A 1.144 1.144 0 0 1 23.58 14.97 L 21.27 14.97 Q 20.97 14.97 20.73 14.805 A 0.964 0.964 0 0 1 20.417 14.444 A 1.212 1.212 0 0 1 20.37 14.34 L 15.03 0.36 L 17.76 0.36 L 21.36 10.59 Q 21.6 11.22 21.81 11.88 A 47.985 47.985 0 0 0 22.125 12.836 A 42.15 42.15 0 0 0 22.23 13.14 L 22.62 13.14 Q 22.86 12.51 23.085 11.865 Q 23.31 11.22 23.52 10.59 L 27.12 0.36 Z" vector-effect="non-scaling-stroke"/>
	</g>
</svg>
